<svg xmlns="http://www.w3.org/2000/svg" xmlns:xlink="http://www.w3.org/1999/xlink" width="2000" zoomAndPan="magnify" viewBox="0 0 1500 1499.999933" height="2000" preserveAspectRatio="xMidYMid meet" version="1.0"><defs><clipPath id="76e6891659"><path d="M 150 343 L 1350 343 L 1350 1157 L 150 1157 Z M 150 343 " clip-rule="nonzero"/></clipPath></defs><g clip-path="url(#76e6891659)"><path fill="#000000" d="M 1338.628906 762.796875 C 1308.226562 680.941406 1176.074219 686.59375 1134.109375 690.574219 C 1106.089844 632.023438 1062.832031 556.933594 1019.21875 491.367188 C 983.023438 436.953125 933.871094 369.613281 905.261719 357.832031 C 861.453125 339.792969 689.257812 336.644531 634.082031 357.667969 C 613.480469 365.511719 591.125 394.183594 581.554688 547.324219 C 577.894531 605.816406 577.464844 663.625 577.515625 691.644531 L 215.386719 687.503906 C 213.511719 687.484375 211.640625 687.554688 209.773438 687.714844 C 207.90625 687.875 206.046875 688.121094 204.203125 688.453125 C 202.359375 688.785156 200.53125 689.207031 198.726562 689.710938 C 196.921875 690.21875 195.144531 690.804688 193.394531 691.480469 C 191.644531 692.152344 189.929688 692.90625 188.25 693.742188 C 186.570312 694.574219 184.933594 695.488281 183.34375 696.476562 C 181.75 697.464844 180.207031 698.523438 178.710938 699.660156 C 177.21875 700.792969 175.78125 701.996094 174.402344 703.265625 C 173.023438 704.53125 171.707031 705.863281 170.449219 707.257812 C 169.195312 708.652344 168.011719 710.101562 166.890625 711.605469 C 165.773438 713.109375 164.730469 714.664062 163.757812 716.269531 C 162.785156 717.871094 161.890625 719.519531 161.074219 721.207031 C 160.257812 722.894531 159.523438 724.617188 158.867188 726.371094 C 158.214844 728.128906 157.644531 729.914062 157.15625 731.722656 C 156.671875 733.535156 156.269531 735.363281 155.957031 737.214844 C 155.644531 739.0625 155.417969 740.921875 155.277344 742.789062 C 149.515625 821.984375 145.515625 926.09375 159.214844 972.328125 C 163.1875 985.726562 174.75 998.511719 257.296875 1007.738281 C 253.324219 1098.988281 308.882812 1143.167969 365.390625 1154.003906 C 375.644531 1155.949219 385.984375 1156.910156 396.417969 1156.890625 C 463.996094 1156.890625 536.371094 1117.714844 553.824219 1046.972656 C 555.976562 1038.296875 557.449219 1029.507812 558.25 1020.605469 C 585.808594 1020.886719 614.753906 1021.046875 645.085938 1021.089844 C 649.917969 1021.09375 654.71875 1021.097656 659.570312 1021.097656 C 729.308594 1021.097656 800.976562 1020.464844 870.21875 1019.492188 C 871.316406 1102.800781 924.46875 1143.640625 978.496094 1154.003906 C 988.746094 1155.949219 999.085938 1156.910156 1009.519531 1156.890625 C 1077.097656 1156.890625 1149.472656 1117.714844 1166.925781 1046.972656 C 1169.6875 1035.867188 1171.320312 1024.597656 1171.828125 1013.167969 C 1212.609375 1012.050781 1246.734375 1011.023438 1271.652344 1010.234375 C 1274.039062 1010.164062 1276.421875 1009.988281 1278.792969 1009.699219 C 1281.164062 1009.410156 1283.515625 1009.015625 1285.851562 1008.511719 C 1288.183594 1008.003906 1290.492188 1007.394531 1292.769531 1006.675781 C 1295.046875 1005.960938 1297.289062 1005.140625 1299.492188 1004.214844 C 1301.695312 1003.292969 1303.851562 1002.269531 1305.960938 1001.144531 C 1308.066406 1000.023438 1310.121094 998.804688 1312.117188 997.492188 C 1314.113281 996.183594 1316.042969 994.78125 1317.910156 993.292969 C 1319.777344 991.800781 1321.574219 990.230469 1323.296875 988.574219 C 1325.019531 986.917969 1326.660156 985.1875 1328.222656 983.382812 C 1329.785156 981.574219 1331.261719 979.699219 1332.652344 977.757812 C 1334.042969 975.816406 1335.339844 973.8125 1336.546875 971.75 C 1337.753906 969.6875 1338.859375 967.574219 1339.871094 965.410156 C 1340.882812 963.246094 1341.789062 961.039062 1342.597656 958.792969 C 1343.40625 956.542969 1344.109375 954.261719 1344.703125 951.949219 C 1345.300781 949.636719 1345.792969 947.300781 1346.171875 944.945312 C 1346.554688 942.585938 1346.828125 940.214844 1346.992188 937.832031 C 1352.992188 852.777344 1350.179688 793.886719 1338.628906 762.796875 Z M 1315.433594 891.378906 C 1303.949219 891.78125 1285.289062 891.976562 1261.367188 890.644531 C 1247.15625 889.855469 1241.53125 883.109375 1243.476562 843.347656 C 1243.695312 838.945312 1243.898438 834.789062 1243.898438 830.984375 C 1243.898438 821.160156 1247.4375 817.214844 1250.519531 814.871094 C 1263.363281 805.113281 1292.6875 807.019531 1313.945312 811.300781 C 1316.167969 837.964844 1316.664062 864.65625 1315.433594 891.378906 Z M 214.703125 721.507812 C 214.800781 721.507812 214.898438 721.507812 215 721.511719 L 243.703125 721.839844 C 248.011719 774.417969 247.171875 817.40625 243.390625 832.632812 C 226.246094 831.71875 201.382812 832.125 184.589844 832.582031 C 185.355469 806.238281 186.886719 776.960938 189.195312 745.257812 C 189.253906 744.460938 189.351562 743.667969 189.484375 742.882812 C 189.617188 742.09375 189.785156 741.3125 189.992188 740.542969 C 190.195312 739.769531 190.4375 739.007812 190.714844 738.257812 C 190.992188 737.507812 191.300781 736.773438 191.648438 736.054688 C 191.992188 735.332031 192.371094 734.632812 192.785156 733.945312 C 193.195312 733.261719 193.636719 732.597656 194.109375 731.953125 C 194.582031 731.308594 195.085938 730.691406 195.617188 730.09375 C 196.148438 729.496094 196.707031 728.925781 197.292969 728.382812 C 197.875 727.835938 198.484375 727.320312 199.117188 726.832031 C 199.75 726.347656 200.40625 725.890625 201.082031 725.460938 C 201.757812 725.035156 202.449219 724.644531 203.164062 724.28125 C 203.875 723.921875 204.605469 723.59375 205.347656 723.300781 C 206.089844 723.007812 206.84375 722.746094 207.613281 722.523438 C 208.378906 722.300781 209.15625 722.117188 209.941406 721.964844 C 210.726562 721.816406 211.515625 721.703125 212.3125 721.625 C 213.105469 721.550781 213.902344 721.511719 214.703125 721.507812 Z M 520.808594 1038.828125 C 505.484375 1100.921875 429.976562 1131.777344 371.796875 1120.605469 C 343.445312 1115.167969 279.007812 1091.578125 292.984375 990.238281 C 301.585938 927.890625 334.675781 903.324219 360.921875 893.699219 C 373.160156 889.289062 385.78125 887.121094 398.789062 887.195312 C 402.796875 887.230469 406.792969 887.441406 410.78125 887.835938 C 414.769531 888.230469 418.734375 888.804688 422.667969 889.554688 C 426.605469 890.304688 430.5 891.230469 434.355469 892.332031 C 438.207031 893.433594 442.003906 894.707031 445.742188 896.152344 C 449.480469 897.59375 453.144531 899.203125 456.738281 900.976562 C 460.332031 902.75 463.839844 904.683594 467.261719 906.769531 C 470.679688 908.859375 474 911.097656 477.214844 913.488281 C 480.433594 915.875 483.539062 918.402344 486.53125 921.070312 C 505.902344 938.425781 536.113281 976.804688 520.808594 1038.828125 Z M 1133.910156 1038.828125 C 1118.585938 1100.921875 1043.085938 1131.777344 984.898438 1120.605469 C 956.546875 1115.167969 892.109375 1091.578125 906.085938 990.238281 C 914.6875 927.890625 947.777344 903.324219 974.023438 893.699219 C 986.261719 889.289062 998.882812 887.121094 1011.890625 887.195312 C 1015.898438 887.230469 1019.894531 887.441406 1023.882812 887.835938 C 1027.871094 888.230469 1031.835938 888.804688 1035.769531 889.554688 C 1039.707031 890.304688 1043.601562 891.230469 1047.457031 892.332031 C 1051.308594 893.433594 1055.105469 894.707031 1058.84375 896.152344 C 1062.582031 897.59375 1066.246094 899.203125 1069.839844 900.976562 C 1073.433594 902.75 1076.941406 904.683594 1080.363281 906.769531 C 1083.78125 908.859375 1087.101562 911.097656 1090.320312 913.488281 C 1093.535156 915.875 1096.640625 918.402344 1099.632812 921.070312 C 1119.003906 938.425781 1149.214844 976.804688 1133.910156 1038.828125 Z M 1270.574219 976.246094 C 1245.65625 977.03125 1211.082031 978.078125 1169.578125 979.207031 C 1168.109375 971.175781 1165.984375 963.324219 1163.203125 955.652344 C 1160.417969 947.976562 1157.015625 940.589844 1152.996094 933.488281 C 1148.972656 926.382812 1144.386719 919.664062 1139.242188 913.328125 C 1134.09375 906.992188 1128.453125 901.132812 1122.324219 895.742188 C 1078.429688 856.417969 1014.128906 842.769531 962.3125 861.773438 C 933.675781 872.273438 883.941406 902.308594 872.417969 985.449219 C 804.367188 986.417969 733.917969 987.054688 665.273438 987.089844 C 627.289062 987.128906 591.402344 986.972656 557.613281 986.621094 C 557.050781 982.269531 556.292969 977.953125 555.339844 973.671875 C 554.386719 969.386719 553.246094 965.15625 551.910156 960.976562 C 550.578125 956.796875 549.058594 952.6875 547.351562 948.644531 C 545.648438 944.601562 543.761719 940.644531 541.703125 936.769531 C 539.640625 932.898438 537.40625 929.125 535.003906 925.453125 C 532.601562 921.785156 530.039062 918.226562 527.316406 914.789062 C 524.59375 911.347656 521.722656 908.039062 518.699219 904.855469 C 515.675781 901.675781 512.519531 898.636719 509.222656 895.742188 C 465.328125 856.417969 401.027344 842.769531 349.210938 861.773438 C 321.941406 871.773438 275.558594 899.523438 261.246094 973.945312 C 210.722656 968.335938 195.464844 962.398438 191.042969 959.839844 C 186.234375 941.300781 183.882812 909.160156 184.015625 866.628906 C 202.78125 866.101562 233.097656 865.570312 248.070312 867.0625 C 249.765625 867.238281 251.457031 867.21875 253.148438 867.007812 C 254.835938 866.796875 256.480469 866.398438 258.082031 865.8125 C 259.679688 865.226562 261.195312 864.46875 262.625 863.542969 C 264.050781 862.613281 265.355469 861.535156 266.539062 860.308594 C 274.789062 852.082031 282.160156 835.417969 280.304688 769.765625 C 279.796875 751.820312 278.710938 734.632812 277.78125 722.230469 L 594.4375 725.847656 L 594.632812 725.847656 C 595.195312 725.847656 595.753906 725.820312 596.3125 725.765625 C 596.875 725.710938 597.429688 725.625 597.980469 725.515625 C 598.53125 725.40625 599.078125 725.265625 599.613281 725.101562 C 600.152344 724.9375 600.679688 724.746094 601.199219 724.527344 C 601.71875 724.3125 602.222656 724.070312 602.71875 723.800781 C 603.214844 723.535156 603.691406 723.242188 604.160156 722.929688 C 604.625 722.613281 605.074219 722.277344 605.507812 721.917969 C 605.9375 721.558594 606.351562 721.175781 606.746094 720.777344 C 607.140625 720.375 607.515625 719.957031 607.867188 719.519531 C 608.21875 719.082031 608.550781 718.628906 608.859375 718.15625 C 609.167969 717.6875 609.449219 717.203125 609.710938 716.703125 C 609.96875 716.203125 610.203125 715.695312 610.414062 715.171875 C 610.625 714.648438 610.804688 714.117188 610.960938 713.578125 C 611.121094 713.039062 611.25 712.492188 611.351562 711.9375 C 611.453125 711.386719 611.527344 710.828125 611.574219 710.269531 C 611.621094 709.710938 611.640625 709.148438 611.632812 708.585938 C 611.621094 707.828125 610.535156 631.589844 615.277344 552.992188 C 624.285156 403.609375 645.476562 389.875 646.1875 389.445312 C 692.550781 371.785156 855.726562 374.21875 892.3125 389.277344 C 901.601562 393.101562 932.816406 422.875 990.90625 510.203125 C 1036.4375 578.65625 1081.484375 657.503906 1108.472656 715.96875 C 1108.855469 716.792969 1109.300781 717.582031 1109.808594 718.335938 C 1110.316406 719.089844 1110.878906 719.796875 1111.5 720.460938 C 1112.121094 721.121094 1112.792969 721.730469 1113.511719 722.285156 C 1114.230469 722.84375 1114.988281 723.335938 1115.785156 723.769531 C 1116.582031 724.207031 1117.410156 724.574219 1118.265625 724.875 C 1119.125 725.179688 1120 725.410156 1120.894531 725.570312 C 1121.785156 725.734375 1122.6875 725.824219 1123.59375 725.84375 C 1124.503906 725.859375 1125.40625 725.804688 1126.308594 725.679688 C 1169.171875 719.601562 1285.175781 716.554688 1306.75 774.636719 C 1306.875 774.972656 1306.992188 775.335938 1307.117188 775.683594 C 1283.855469 772.476562 1251.050781 771.796875 1229.992188 787.757812 C 1220.820312 794.710938 1209.890625 807.851562 1209.890625 830.984375 C 1209.890625 833.953125 1209.707031 837.710938 1209.511719 841.683594 C 1208.820312 855.773438 1207.964844 873.316406 1212.882812 889.011719 C 1219.664062 910.671875 1236.210938 923.308594 1259.480469 924.601562 C 1274.230469 925.421875 1287.066406 925.695312 1297.652344 925.695312 C 1303.800781 925.695312 1309.167969 925.601562 1313.734375 925.46875 C 1313.523438 928.757812 1313.304688 932.070312 1313.070312 935.4375 C 1312.976562 936.78125 1312.820312 938.117188 1312.605469 939.449219 C 1312.390625 940.777344 1312.113281 942.09375 1311.777344 943.398438 C 1311.4375 944.703125 1311.042969 945.988281 1310.585938 947.253906 C 1310.132812 948.523438 1309.617188 949.765625 1309.046875 950.984375 C 1308.476562 952.207031 1307.851562 953.398438 1307.171875 954.558594 C 1306.492188 955.722656 1305.761719 956.851562 1304.976562 957.945312 C 1304.191406 959.042969 1303.359375 960.097656 1302.476562 961.117188 C 1301.597656 962.132812 1300.667969 963.109375 1299.699219 964.042969 C 1298.726562 964.976562 1297.714844 965.863281 1296.660156 966.703125 C 1295.609375 967.542969 1294.519531 968.332031 1293.394531 969.070312 C 1292.265625 969.808594 1291.109375 970.496094 1289.921875 971.128906 C 1288.730469 971.761719 1287.515625 972.335938 1286.273438 972.855469 C 1285.03125 973.378906 1283.769531 973.839844 1282.484375 974.242188 C 1281.199219 974.648438 1279.898438 974.992188 1278.582031 975.277344 C 1277.265625 975.558594 1275.9375 975.785156 1274.601562 975.945312 C 1273.265625 976.105469 1271.921875 976.207031 1270.574219 976.246094 Z M 1270.574219 976.246094 " fill-opacity="1" fill-rule="nonzero"/></g><path fill="#000000" d="M 909.109375 465.441406 C 908.121094 463.890625 907.039062 462.40625 905.863281 460.992188 C 904.6875 459.578125 903.425781 458.242188 902.082031 456.984375 C 900.738281 455.726562 899.320312 454.5625 897.832031 453.484375 C 896.339844 452.402344 894.785156 451.421875 893.171875 450.539062 C 891.558594 449.65625 889.894531 448.878906 888.183594 448.207031 C 886.46875 447.53125 884.722656 446.96875 882.9375 446.515625 C 881.15625 446.0625 879.351562 445.722656 877.527344 445.496094 C 875.699219 445.269531 873.867188 445.160156 872.027344 445.164062 L 795.640625 445.164062 C 794.21875 445.15625 792.804688 445.21875 791.394531 445.347656 C 789.980469 445.476562 788.578125 445.675781 787.183594 445.941406 C 785.792969 446.210938 784.414062 446.542969 783.054688 446.941406 C 781.691406 447.34375 780.355469 447.808594 779.039062 448.339844 C 777.722656 448.867188 776.4375 449.460938 775.179688 450.117188 C 773.921875 450.773438 772.695312 451.488281 771.507812 452.261719 C 770.320312 453.035156 769.171875 453.863281 768.0625 454.75 C 766.953125 455.636719 765.890625 456.574219 764.875 457.5625 C 763.859375 458.550781 762.890625 459.585938 761.976562 460.667969 C 761.058594 461.75 760.199219 462.875 759.390625 464.042969 C 758.582031 465.210938 757.835938 466.410156 757.144531 467.652344 C 756.453125 468.890625 755.824219 470.160156 755.257812 471.460938 C 754.691406 472.761719 754.1875 474.085938 753.75 475.433594 C 753.3125 476.78125 752.941406 478.148438 752.632812 479.535156 C 752.328125 480.921875 752.089844 482.316406 751.921875 483.726562 C 751.75 485.132812 751.648438 486.546875 751.617188 487.964844 C 750.796875 517.367188 749.617188 573.890625 750.929688 622.078125 C 751.261719 643.046875 752.648438 663.941406 755.09375 684.769531 C 757.0625 699.296875 760.359375 723.613281 779.558594 725.742188 C 786.625 726.527344 813.597656 726.921875 860.113281 726.921875 C 894.691406 726.921875 940.011719 726.703125 996.078125 726.269531 C 998.039062 726.269531 999.992188 726.136719 1001.933594 725.871094 C 1003.878906 725.609375 1005.796875 725.214844 1007.6875 724.6875 C 1009.578125 724.164062 1011.425781 723.515625 1013.226562 722.742188 C 1015.027344 721.964844 1016.769531 721.074219 1018.453125 720.0625 C 1020.132812 719.054688 1021.742188 717.933594 1023.269531 716.707031 C 1024.800781 715.476562 1026.242188 714.152344 1027.59375 712.730469 C 1028.941406 711.308594 1030.191406 709.800781 1031.339844 708.207031 C 1032.484375 706.617188 1033.519531 704.953125 1034.441406 703.222656 C 1035.375 701.5 1036.1875 699.722656 1036.886719 697.886719 C 1037.582031 696.054688 1038.152344 694.1875 1038.597656 692.277344 C 1039.046875 690.367188 1039.363281 688.4375 1039.550781 686.488281 C 1039.742188 684.535156 1039.800781 682.582031 1039.726562 680.621094 C 1039.65625 678.664062 1039.453125 676.71875 1039.121094 674.785156 C 1038.792969 672.855469 1038.332031 670.953125 1037.746094 669.082031 C 1037.160156 667.210938 1036.453125 665.390625 1035.625 663.613281 C 1034.796875 661.835938 1033.855469 660.125 1032.796875 658.472656 Z M 1004.542969 687.019531 C 1004.121094 687.8125 1003.605469 688.539062 1002.988281 689.191406 C 1002.371094 689.84375 1001.679688 690.398438 1000.910156 690.863281 C 1000.140625 691.324219 999.320312 691.675781 998.457031 691.910156 C 997.589844 692.148438 996.710938 692.265625 995.8125 692.261719 C 889.074219 693.089844 815.066406 693.109375 790.804688 692.339844 C 785.703125 672.125 782.378906 604.792969 785.613281 488.914062 C 785.625 488.265625 785.703125 487.625 785.84375 486.996094 C 785.984375 486.363281 786.183594 485.75 786.441406 485.15625 C 786.699219 484.5625 787.015625 484 787.382812 483.46875 C 787.75 482.933594 788.167969 482.441406 788.632812 481.992188 C 789.097656 481.539062 789.601562 481.136719 790.144531 480.785156 C 790.6875 480.433594 791.257812 480.132812 791.859375 479.894531 C 792.460938 479.652344 793.078125 479.46875 793.714844 479.347656 C 794.351562 479.226562 794.992188 479.167969 795.640625 479.171875 L 872.027344 479.171875 C 872.867188 479.167969 873.695312 479.273438 874.511719 479.480469 C 875.328125 479.6875 876.105469 479.992188 876.84375 480.394531 C 877.582031 480.800781 878.257812 481.289062 878.871094 481.863281 C 879.488281 482.4375 880.023438 483.082031 880.472656 483.789062 L 1004.164062 676.820312 C 1004.660156 677.570312 1005.042969 678.375 1005.316406 679.230469 C 1005.589844 680.089844 1005.746094 680.96875 1005.777344 681.867188 C 1005.8125 682.765625 1005.722656 683.652344 1005.511719 684.527344 C 1005.304688 685.402344 1004.980469 686.234375 1004.542969 687.019531 Z M 1004.542969 687.019531 " fill-opacity="1" fill-rule="nonzero"/><path fill="#000000" d="M 1069.296875 952.785156 C 1048.617188 934.257812 1018.179688 927.878906 993.554688 936.917969 C 979.695312 942 955.636719 956.398438 950.214844 995.714844 C 944.46875 1037.367188 964.699219 1068.871094 1001.75 1075.976562 C 1006.5 1076.878906 1011.292969 1077.324219 1016.125 1077.3125 C 1047.996094 1077.3125 1082.269531 1058.515625 1090.625 1024.652344 C 1097.398438 997.195312 1089.625 971 1069.296875 952.785156 Z M 1057.609375 1016.507812 C 1053.644531 1032.566406 1032.371094 1047.21875 1008.160156 1042.578125 C 994.792969 1040.011719 979.734375 1030.609375 983.90625 1000.363281 C 986.15625 984.042969 993.542969 973.144531 1005.265625 968.84375 C 1009.128906 967.460938 1013.113281 966.785156 1017.21875 966.816406 C 1019.90625 966.84375 1022.570312 967.109375 1025.207031 967.613281 C 1027.847656 968.117188 1030.421875 968.851562 1032.929688 969.816406 C 1035.4375 970.78125 1037.839844 971.957031 1040.136719 973.351562 C 1042.433594 974.746094 1044.589844 976.335938 1046.601562 978.113281 C 1054.253906 984.96875 1062.371094 997.195312 1057.609375 1016.507812 Z M 1057.609375 1016.507812 " fill-opacity="1" fill-rule="nonzero"/><path fill="#000000" d="M 455.574219 953.457031 C 435.167969 935.167969 405.128906 928.882812 380.820312 937.796875 C 367.132812 942.816406 343.378906 957.03125 338.023438 995.835938 C 332.355469 1036.945312 352.332031 1068.046875 388.925781 1075.0625 C 393.609375 1075.949219 398.335938 1076.386719 403.101562 1076.378906 C 434.554688 1076.378906 468.378906 1057.820312 476.628906 1024.390625 C 483.316406 997.289062 475.640625 971.433594 455.574219 953.457031 Z M 443.613281 1016.246094 C 439.746094 1031.90625 418.988281 1046.199219 395.328125 1041.664062 C 382.3125 1039.164062 367.644531 1029.996094 371.714844 1000.484375 C 373.910156 984.550781 381.109375 973.914062 392.53125 969.722656 C 396.300781 968.378906 400.183594 967.71875 404.1875 967.75 C 406.8125 967.777344 409.414062 968.035156 411.988281 968.527344 C 414.566406 969.019531 417.082031 969.738281 419.53125 970.679688 C 421.976562 971.621094 424.324219 972.773438 426.566406 974.132812 C 428.808594 975.496094 430.914062 977.046875 432.878906 978.785156 C 440.34375 985.472656 448.261719 997.394531 443.613281 1016.246094 Z M 443.613281 1016.246094 " fill-opacity="1" fill-rule="nonzero"/></svg>