<svg width="26" height="24" viewBox="0 0 26 24" fill="none" xmlns="http://www.w3.org/2000/svg">
<path d="M16 3H19" stroke="#333333" stroke-width="2" stroke-linecap="round" stroke-linejoin="round"/>
<path d="M5 18H3V13H23V18M9.5 18C9.5 18 21.5 18 15 18" stroke="#333333" stroke-width="2" stroke-linecap="round" stroke-linejoin="round"/>
<path d="M14 13V6H18.875L23 12V18H20.75" stroke="#333333" stroke-width="2" stroke-linecap="round" stroke-linejoin="round"/>
<path d="M19 21C20.1046 21 21 20.1046 21 19C21 17.8954 20.1046 17 19 17C17.8954 17 17 17.8954 17 19C17 20.1046 17.8954 21 19 21Z" stroke="#333333" stroke-width="2"/>
<path d="M7 21C8.10457 21 9 20.1046 9 19C9 17.8954 8.10457 17 7 17C5.89543 17 5 17.8954 5 19C5 20.1046 5.89543 21 7 21Z" stroke="#333333" stroke-width="2"/>
</svg>
